<svg width="49" height="24" viewBox="0 0 49 24" fill="none" xmlns="http://www.w3.org/2000/svg">
<path d="M43.1221 6.70285C40.1218 6.70285 37.6803 9.15768 37.6803 12.1755C37.6803 15.1933 40.1218 17.6481 43.1221 17.6481C46.1217 17.6481 48.5625 15.1933 48.5625 12.1755C48.5625 9.15768 46.1217 6.70285 43.1221 6.70285ZM43.1221 15.0545C41.5442 15.0545 40.259 13.7615 40.259 12.1755C40.259 10.5887 41.5442 9.29648 43.1221 9.29648C44.6986 9.29648 45.9845 10.5887 45.9845 12.1755C45.9845 13.7622 44.6993 15.0545 43.1214 15.0545H43.1221ZM27.0979 11.0671L26.1463 10.5894C25.7332 10.3837 25.4742 10.2244 25.37 10.1068C25.2707 10.0025 25.2142 9.86469 25.2117 9.72065C25.2117 9.53605 25.2947 9.38033 25.458 9.25914C25.6199 9.13231 25.85 9.07454 26.1421 9.07454C26.6763 9.07454 27.2682 9.39724 27.9199 10.0476L29.526 8.43194C29.1314 7.89393 28.6153 7.45694 28.0199 7.15661C27.4322 6.86063 26.783 6.70803 26.1252 6.7113C25.1448 6.7113 24.3354 7.00089 23.7048 7.5843C23.0749 8.16771 22.7582 8.86879 22.7582 9.69106C22.7582 10.9664 23.5922 12.0289 25.2659 12.8723L26.1421 13.3127C26.8973 13.6953 27.2731 14.085 27.2731 14.488C27.2731 14.7064 27.1683 14.8952 26.9599 15.0629C26.7516 15.2313 26.4757 15.311 26.1337 15.311C25.817 15.311 25.4538 15.2017 25.0449 14.9798C24.6374 14.7614 24.2749 14.4678 23.9765 14.1145L22.3789 15.8648C23.2797 17.0485 24.4811 17.6446 25.9915 17.6446C27.1267 17.6446 28.0325 17.3339 28.704 16.7166C29.3796 16.1001 29.7174 15.3279 29.7174 14.4041C29.7174 13.7115 29.5302 13.1034 29.1586 12.587C28.7835 12.0705 28.0952 11.5674 27.0979 11.0679V11.0671ZM10.9413 16.4559V6.92057H8.35838V7.55894C7.48805 6.9989 6.47501 6.70169 5.44041 6.70285C2.44079 6.70285 0 9.15768 0 12.1755C0 15.1933 2.44079 17.6481 5.44111 17.6481C6.4633 17.6497 7.46485 17.3601 8.32882 16.8132C8.32882 16.897 8.3246 16.9724 8.3246 17.0231C8.3246 18.6092 7.03945 19.9021 5.46223 19.9021C4.92594 19.9009 4.40091 19.748 3.94764 19.4611L2.67023 21.7108C3.51256 22.2252 4.47979 22.4982 5.46645 22.5C8.46677 22.5 10.9413 20.0445 10.9413 17.0267C10.9413 16.9097 10.9491 16.5651 10.9413 16.4559ZM5.44111 15.0538C3.86459 15.0538 2.57874 13.7615 2.57874 12.1755C2.57874 10.5887 3.86389 9.29648 5.44111 9.29648C7.01834 9.29648 8.30349 10.5887 8.30349 12.1755C8.30349 13.7615 7.01834 15.0545 5.44111 15.0545V15.0538ZM21.2303 6.91705H18.6346V12.1198C18.6389 12.8589 18.6389 14.135 18.0969 14.6803C17.8379 14.9403 17.5543 15.1757 16.9575 15.1757C16.3564 15.1757 16.0728 14.9403 15.8145 14.6803C15.2719 14.1343 15.2761 12.8547 15.2796 12.1198V6.91705H12.6847V12.1043C12.6762 13.1739 12.6636 15.1595 13.9656 16.4771C14.7292 17.2493 15.6392 17.6439 16.9532 17.6439C18.2679 17.6439 19.1773 17.2535 19.9409 16.4771C21.2429 15.1595 21.2303 13.1697 21.2218 12.1043L21.2303 6.91634V6.91705ZM35.9391 14.5887C35.7307 14.748 35.2254 15.101 34.6539 15.0214C34.1866 14.958 33.8072 14.6141 33.7488 13.4642V9.14993H36.7991V6.90859H33.7488V4H31.1616V4.57073H31.1574V13.1246C31.1574 14.4845 31.4995 17.6439 34.6497 17.6439C36.2438 17.6192 37.2116 16.7505 37.6169 16.4108L37.6711 16.3686L36.1185 14.4464C36.1143 14.4499 36.0059 14.538 35.9391 14.5887Z" fill="#F45D48"/>
</svg>
