<svg width="41" height="24" viewBox="0 0 41 24" fill="none" xmlns="http://www.w3.org/2000/svg">
<g clip-path="url(#clip0_4_1515)">
<path fill-rule="evenodd" clip-rule="evenodd" d="M40.4863 12.9084C40.4863 10.0887 39.1204 7.86372 36.51 7.86372C33.8885 7.86372 32.3024 10.0887 32.3024 12.8864C32.3024 16.2018 34.1748 17.8761 36.8624 17.8761C38.1732 17.8761 39.1645 17.5787 39.9135 17.1601V14.9572C39.1645 15.3317 38.3054 15.563 37.2149 15.563C36.1465 15.563 35.1992 15.1885 35.0781 13.8888H40.4642C40.4642 13.7456 40.4863 13.1728 40.4863 12.9084ZM35.045 11.8621C35.045 10.6174 35.805 10.0997 36.4989 10.0997C37.1708 10.0997 37.8868 10.6174 37.8868 11.8621H35.045Z" fill="#635BFF"/>
<path fill-rule="evenodd" clip-rule="evenodd" d="M28.0506 7.86372C26.9712 7.86372 26.2772 8.37039 25.8917 8.72286L25.7485 8.03995H23.3253V20.8831L26.079 20.2993L26.09 17.1821C26.4865 17.4685 27.0703 17.8761 28.0396 17.8761C30.0112 17.8761 31.8066 16.2899 31.8066 12.7983C31.7956 9.60403 29.9782 7.86372 28.0506 7.86372ZM27.3897 15.4528C26.7399 15.4528 26.3543 15.2215 26.09 14.9351L26.079 10.8487C26.3654 10.5293 26.7619 10.309 27.3897 10.309C28.3921 10.309 29.086 11.4325 29.086 12.8754C29.086 14.3514 28.4031 15.4528 27.3897 15.4528Z" fill="#635BFF"/>
<path fill-rule="evenodd" clip-rule="evenodd" d="M19.5362 7.21383L22.3009 6.61904V4.38306L19.5362 4.96683V7.21383Z" fill="#635BFF"/>
<path d="M22.3009 8.05095H19.5362V17.6888H22.3009V8.05095Z" fill="#635BFF"/>
<path fill-rule="evenodd" clip-rule="evenodd" d="M16.5731 8.86603L16.3969 8.05095H14.0177V17.6888H16.7714V11.1571C17.4213 10.309 18.5227 10.4632 18.8642 10.5843V8.05095C18.5117 7.91877 17.223 7.67645 16.5731 8.86603Z" fill="#635BFF"/>
<path fill-rule="evenodd" clip-rule="evenodd" d="M11.0659 5.66075L8.37831 6.23351L8.3673 15.0563C8.3673 16.6864 9.58993 17.887 11.2201 17.887C12.1233 17.887 12.7842 17.7218 13.1477 17.5235V15.2876C12.7952 15.4308 11.0549 15.9374 11.0549 14.3073V10.3971H13.1477V8.05093H11.0549L11.0659 5.66075Z" fill="#635BFF"/>
<path fill-rule="evenodd" clip-rule="evenodd" d="M3.62009 10.8487C3.62009 10.4191 3.97256 10.2539 4.55633 10.2539C5.39345 10.2539 6.45086 10.5072 7.28797 10.9588V8.3704C6.37375 8.00691 5.47055 7.86372 4.55633 7.86372C2.32036 7.86372 0.833374 9.03128 0.833374 10.9809C0.833374 14.0209 5.01895 13.5363 5.01895 14.847C5.01895 15.3537 4.57836 15.5189 3.96154 15.5189C3.04732 15.5189 1.87977 15.1444 0.954535 14.6377V17.2592C1.9789 17.6998 3.01428 17.8871 3.96154 17.8871C6.25259 17.8871 7.82769 16.7526 7.82769 14.7809C7.81668 11.4986 3.62009 12.0823 3.62009 10.8487Z" fill="#635BFF"/>
</g>
<defs>
<clipPath id="clip0_4_1515">
<rect width="40" height="24" fill="white" transform="translate(0.833374)"/>
</clipPath>
</defs>
</svg>
