<svg width="84" height="24" viewBox="0 0 84 24" fill="none" xmlns="http://www.w3.org/2000/svg">
<g clip-path="url(#clip0_4_1516)">
<path d="M26.0791 15.0281C25.8416 15.0875 25.5448 15.1469 25.2479 15.1469C24.6541 15.1469 24.4166 14.7906 24.4166 14.1969V11.525H26.0791C26.4948 11.525 26.9104 11.2281 26.9104 10.7531C26.9104 10.2781 26.5541 9.98127 26.0791 9.98127H24.4166V9.09065C24.4166 8.55627 24.001 8.20002 23.526 8.20002C23.051 8.20002 22.6354 8.61565 22.6354 9.09065V14.2563C22.6354 15.7406 23.3479 16.8094 25.0104 16.8094C25.4854 16.8094 26.1385 16.75 26.6135 16.5125C27.0291 16.3344 27.1479 16.0375 27.1479 15.7406C27.1479 15.325 26.7323 14.9094 26.0791 15.0281ZM32.0166 9.74377C31.7791 9.6844 31.3041 9.62502 30.8885 9.62502C29.4041 9.62502 28.5729 10.5156 28.5729 11.8813V15.9188C28.5729 16.3938 28.9885 16.8094 29.4635 16.8094C29.9385 16.8094 30.3541 16.3938 30.3541 15.9188V12.2375C30.3541 11.6438 30.5916 11.4063 31.0072 11.4063C31.4229 11.4063 31.6604 11.525 32.0166 11.525C32.551 11.525 32.8479 11.05 32.8479 10.6938C32.7885 10.2188 32.551 9.9219 32.0166 9.74377ZM36.9447 9.62502C35.2823 9.62502 34.0948 10.6938 33.9166 12.4156C33.9166 12.8313 33.8573 13.5438 33.9166 14.0781C34.0354 15.7406 35.2229 16.8688 37.0041 16.8688C37.8354 16.8688 38.6072 16.6906 39.0822 16.3938C39.4385 16.1563 39.4979 15.9188 39.4979 15.6813C39.4979 15.2063 39.0823 14.7313 38.3698 14.9688C37.9541 15.1469 37.4791 15.2656 37.0041 15.2656C36.1729 15.2656 35.5198 14.85 35.5198 14.0188V13.8406H38.9041C39.4979 13.8406 39.7948 13.4844 39.7948 12.95V12.6531C39.8541 10.8125 38.6666 9.62502 36.9447 9.62502ZM38.0729 12.6531H35.5791C35.5791 11.7625 35.9948 11.1688 36.9447 11.1688C37.776 11.1688 38.251 11.7031 38.1916 12.475C38.1916 12.5938 38.1916 12.6531 38.0729 12.6531ZM44.0697 9.62502C42.4072 9.62502 41.2198 10.6938 41.0416 12.4156C41.0416 12.8313 40.9823 13.5438 41.0416 14.0781C41.1604 15.7406 42.3479 16.8688 44.1291 16.8688C44.9604 16.8688 45.7322 16.6906 46.2072 16.3938C46.5635 16.1563 46.6229 15.9188 46.6229 15.6813C46.6229 15.2063 46.2073 14.7313 45.4948 14.9688C45.0791 15.1469 44.6041 15.2656 44.1291 15.2656C43.2979 15.2656 42.6447 14.85 42.6447 14.0188V13.8406H46.0291C46.6229 13.8406 46.9198 13.4844 46.9198 12.95V12.6531C46.9791 10.8125 45.7916 9.62502 44.0697 9.62502ZM45.1979 12.6531H42.7041C42.7041 11.7625 43.1198 11.1688 44.0697 11.1688C44.901 11.1688 45.376 11.7031 45.3166 12.475C45.3166 12.5938 45.3166 12.6531 45.1979 12.6531ZM74.0541 12.5938L73.1041 12.3563C72.5104 12.2375 72.3322 12.0594 72.3322 11.7625C72.3322 11.4656 72.6291 11.2281 73.2823 11.2281C73.6385 11.2281 74.0541 11.3469 74.4104 11.525C74.826 11.7625 75.301 11.7031 75.5385 11.4063C75.8354 11.1094 75.8354 10.575 75.4791 10.2188C75.0041 9.86252 74.1729 9.62502 73.3416 9.62502C71.7979 9.62502 70.6698 10.3969 70.6698 11.8219C70.6698 12.95 71.501 13.5438 72.5698 13.8406C73.1041 13.9594 73.0448 13.9594 73.5197 14.0781C74.0541 14.1969 74.2916 14.4344 74.2916 14.6719C74.2916 15.0281 73.9948 15.2656 73.2823 15.2656C72.6885 15.2656 72.1541 15.0875 71.7385 14.85C71.3229 14.5531 70.8479 14.6719 70.6104 15.0281C70.3729 15.3844 70.4323 15.8594 70.7885 16.0969C71.2635 16.5125 72.0354 16.8688 73.2823 16.8688C74.826 16.8688 76.0135 16.0375 76.0135 14.6125C76.0135 13.5438 75.3604 12.8906 74.0541 12.5938ZM82.3073 13.8406C82.901 13.8406 83.1979 13.4844 83.1979 12.95V12.6531C83.1979 10.8125 82.0104 9.62502 80.2885 9.62502C78.626 9.62502 77.4385 10.6938 77.2604 12.4156C77.2604 12.8313 77.201 13.5438 77.2604 14.0781C77.3791 15.7406 78.5666 16.8688 80.3479 16.8688C81.1791 16.8688 81.951 16.6906 82.426 16.3938C82.7822 16.1563 82.8416 15.9188 82.8416 15.6813C82.8416 15.2063 82.426 14.7313 81.7135 14.9688C81.2979 15.1469 80.8229 15.2656 80.3479 15.2656C79.5166 15.2656 78.8635 14.85 78.8635 14.0188V13.8406H82.3073ZM80.2885 11.1688C81.1198 11.1688 81.5947 11.7031 81.5354 12.475C81.5354 12.5938 81.476 12.6531 81.4166 12.6531H78.9229C78.9229 11.7625 79.3979 11.1688 80.2885 11.1688ZM58.5573 9.62502C56.776 9.62502 55.4697 10.7531 55.2916 12.2969C55.2323 12.8313 55.2323 13.6625 55.2916 14.1969C55.4104 15.7407 56.776 16.8688 58.5573 16.8688C60.3385 16.8688 61.6448 15.7407 61.7635 14.1969C61.8229 13.6625 61.8229 12.8906 61.7635 12.3563C61.6448 10.7531 60.3385 9.62502 58.5573 9.62502ZM59.9823 13.9C59.9229 14.6719 59.3885 15.1469 58.5573 15.1469C57.726 15.1469 57.1916 14.6125 57.1323 13.9C57.1323 13.5438 57.1323 12.95 57.1323 12.5938C57.1916 11.8219 57.726 11.3469 58.5573 11.3469C59.3885 11.3469 59.9229 11.8813 59.9823 12.5938C60.0416 12.95 60.0416 13.5438 59.9823 13.9ZM51.4916 9.62502C50.8385 9.62502 50.126 9.86252 49.8885 10.1594V8.2594C49.8885 7.72502 49.5323 7.36877 49.0573 7.36877C48.5823 7.36877 48.226 7.7844 48.226 8.2594V15.9188C48.226 16.3938 48.6416 16.8094 49.1166 16.8094C49.5916 16.8094 49.9479 16.3938 49.9479 15.9188V11.9406C50.2448 11.6438 50.7198 11.4063 51.3135 11.4063C52.026 11.4063 52.4416 11.8219 52.4416 12.6531V15.9188C52.4416 16.4531 52.7979 16.8688 53.2729 16.8688C53.8073 16.8688 54.1635 16.4531 54.1635 15.9188V12.5344C54.1041 10.6344 53.1541 9.62502 51.4916 9.62502ZM68.1166 9.6844C67.6416 9.6844 67.226 10.1 67.226 10.575V14.7906C66.9291 14.9688 66.5135 15.1469 65.9791 15.1469C65.2666 15.1469 64.7323 14.7313 64.7323 13.9V10.575C64.7323 10.0406 64.3166 9.62502 63.8416 9.62502C63.3073 9.62502 63.0104 10.0406 63.0104 10.575V13.9594C63.0104 15.8 64.0791 16.8094 65.9198 16.8094C67.2854 16.8094 68.2354 16.3344 68.651 16.0375C68.8885 15.9188 68.9479 15.7406 68.9479 15.4438V10.575C68.9479 10.1 68.5916 9.6844 68.1166 9.6844Z" fill="#3E474F"/>
<path d="M16.1041 6.00317C15.451 5.64692 14.4416 6.24067 13.8479 7.30942L12.7198 9.20942C12.3041 9.9813 12.3635 10.9313 12.8979 11.7032L12.9573 11.7626C13.4916 12.475 14.1448 13.1875 14.3823 13.425C14.501 13.5438 14.6198 13.7219 14.6791 13.9594C14.8573 14.6125 14.501 15.3251 13.7885 15.5032C13.1354 15.6813 12.4229 15.3251 12.2448 14.6125C12.1854 14.4344 12.1854 14.2563 12.1854 14.1376C12.2448 13.8407 12.126 13.4251 11.7104 12.9501C11.2948 12.5344 10.5229 13.3657 10.226 14.1969V14.2563C9.9885 15.0876 9.81038 15.8594 9.86975 15.9188C9.86975 15.9782 9.92913 15.9782 9.92913 16.0375C10.2854 16.75 10.0479 17.5813 9.33538 17.9376C8.62288 18.2938 7.79163 18.0563 7.43538 17.3438C7.07913 16.6313 7.31663 15.8 8.02913 15.4438C8.0885 15.4438 8.0885 15.3844 8.14788 15.3844C8.20725 15.3844 8.326 15.0282 8.50413 14.5532C8.62288 14.1375 8.68225 13.9594 8.74163 13.7813C8.801 13.5438 8.91975 12.9501 8.86038 12.7126C8.801 12.4157 8.50413 12.4157 8.20725 12.5938C8.02913 12.7126 7.67288 13.0094 7.55413 13.1282C7.25725 13.3657 7.01975 13.7219 6.901 14.0188C6.84163 14.1376 6.72288 14.3157 6.60413 14.4344C6.06975 14.8501 5.29788 14.7907 4.82288 14.2563C4.40725 13.7219 4.46663 12.95 5.001 12.475C5.17913 12.3563 5.35725 12.2375 5.53538 12.2375C5.83225 12.1782 6.901 11.5251 7.55413 11.05C7.67288 10.9907 7.851 10.8125 7.91038 10.7532C8.0885 10.5157 7.91038 10.3375 7.73225 10.3375C7.19788 10.3969 6.60413 10.4563 6.48538 10.6344C6.426 10.6938 6.36663 10.8126 6.24788 10.8719C5.77288 11.2282 5.06038 11.1094 4.70413 10.6344C4.34788 10.1594 4.46663 9.44693 4.94163 9.09067C5.11975 8.91255 5.41663 8.85317 5.59475 8.85317C6.01038 8.85317 7.07913 9.09067 7.91038 8.91255L8.14788 8.85317C9.0385 8.67505 10.1073 7.90317 10.5229 7.1313C10.5229 7.1313 10.9385 6.4188 11.4135 5.52817C11.9479 4.63755 11.8885 3.62817 11.3541 3.3313L10.3448 2.73755C9.81038 2.44067 9.0385 2.44067 8.50413 2.73755L1.61663 6.6563C1.08225 6.95317 0.666626 7.66567 0.666626 8.25942V15.8594C0.666626 16.4532 1.08225 17.1657 1.61663 17.4626L8.50413 21.3813C9.0385 21.6782 9.86975 21.6782 10.3448 21.3813L17.2323 17.4626C17.7666 17.1657 18.1823 16.4532 18.1823 15.8594V8.25942C18.1823 7.66567 17.7666 6.95317 17.2323 6.6563C17.2323 6.6563 16.7573 6.35942 16.1041 6.00317Z" fill="#5FCF80"/>
</g>
<defs>
<clipPath id="clip0_4_1516">
<rect width="82.5" height="24" fill="white" transform="translate(0.666626)"/>
</clipPath>
</defs>
</svg>
