<svg width="57" height="24" viewBox="0 0 57 24" fill="none" xmlns="http://www.w3.org/2000/svg">
<g clip-path="url(#clip0_4_1517)">
<path d="M15.6452 15.5419C14.0535 15.5419 12.9998 14.3361 12.7058 13.8691C13.083 10.9145 14.1867 9.9803 15.6452 9.9803C17.0872 9.9803 18.2075 11.11 18.2075 12.7611C18.2075 14.4122 17.0872 15.5419 15.6452 15.5419ZM15.6452 8.16626C13.0497 8.16626 11.5967 9.82279 11.1807 11.5282C10.7093 10.6592 10.3599 9.49692 10.0882 8.4161H6.49989V12.7883C6.49989 14.3742 5.76228 15.5473 4.32032 15.5473C2.87836 15.5473 2.05202 14.3742 2.05202 12.7883L2.06865 8.4161H0V12.7883C0 14.0646 0.421495 15.2215 1.19239 16.047C1.98546 16.8997 3.06693 17.3451 4.32032 17.3451C6.81601 17.3451 8.55748 15.4713 8.55748 12.7883V9.84995C8.81809 10.8167 9.43929 12.6742 10.6261 14.3036L9.51693 20.4898H11.6189L12.3509 16.1067C12.5894 16.3023 12.8445 16.4761 13.1162 16.6336C13.8206 17.0681 14.6247 17.3125 15.4567 17.3396C15.4567 17.3396 15.5842 17.3451 15.6508 17.3451C18.2241 17.3451 20.2705 15.3953 20.2705 12.7611C20.2705 10.1269 18.2186 8.16626 15.6452 8.16626Z" fill="#14A800"/>
<path d="M45.3662 9.35072V8.41655H43.3364V17.0685H45.394V13.6794C45.394 11.5938 45.5881 10.0948 48.4442 10.2903V8.31335C47.1132 8.21559 46.0761 8.48715 45.3662 9.35072Z" fill="#14A800"/>
<path d="M31.0804 8.41675L29.5885 14.4672L27.9968 8.41675H25.3791L23.7818 14.4672L22.2955 8.41675H20.2102L22.4952 17.0742H24.9687L26.6879 10.926L28.3905 17.0742H30.8641L33.2821 8.41675H31.0804Z" fill="#14A800"/>
<path d="M37.8131 15.5473C36.349 15.5473 35.2509 14.4177 35.2509 12.7611C35.2509 11.1046 36.3546 9.9803 37.8131 9.9803C39.2551 9.9803 40.3754 11.11 40.3754 12.7611C40.3754 14.4122 39.2551 15.5473 37.8131 15.5473ZM37.8131 8.16626C35.2232 8.16626 33.1934 10.1324 33.1934 12.7611C33.1934 15.3898 35.2232 17.3396 37.8131 17.3396C40.3865 17.3396 42.433 15.3898 42.433 12.7611C42.433 10.1324 40.3921 8.16626 37.8131 8.16626Z" fill="#14A800"/>
<path d="M51.3951 12.8156H51.8721L54.7449 17.0737H57.0687L53.7633 12.3539C55.3661 11.7402 56.442 10.138 56.442 8.41626H54.39C54.39 10.2846 52.887 10.9907 51.3951 10.9907V5H49.332V17.0737H51.3896L51.3951 12.8156Z" fill="#14A800"/>
</g>
<defs>
<clipPath id="clip0_4_1517">
<rect width="57" height="24" fill="white"/>
</clipPath>
</defs>
</svg>
