<svg width="108" height="32" viewBox="0 0 108 32" fill="none" xmlns="http://www.w3.org/2000/svg">
<path d="M5.10586 13.4471C5.10586 8.06883 5.10586 5.37971 6.3966 3.44798C6.95537 2.61172 7.67339 1.8937 8.50966 1.33493C10.4414 0.0441895 13.1305 0.0441895 18.5087 0.0441895C23.887 0.0441895 26.5761 0.0441895 28.5078 1.33493C29.3441 1.8937 30.0621 2.61172 30.6209 3.44798C31.9116 5.37971 31.9116 8.06883 31.9116 13.4471C31.9116 18.8253 31.9116 21.5144 30.6209 23.4462C30.0621 24.2824 29.3441 25.0004 28.5078 25.5592C26.5761 26.85 23.887 26.85 18.5087 26.85C13.1305 26.85 10.4414 26.85 8.50966 25.5592C7.67339 25.0004 6.95537 24.2824 6.3966 23.4462C5.10586 21.5144 5.10586 18.8253 5.10586 13.4471Z" fill="#553B33"/>
<path d="M0 15.3618C0 10.5479 0 8.141 1.49547 6.64552C2.99094 5.15005 5.39787 5.15005 10.2117 5.15005H16.594C21.4079 5.15005 23.8148 5.15005 25.3103 6.64552C26.8058 8.141 26.8058 10.5479 26.8058 15.3618V21.7441C26.8058 26.558 26.8058 28.9649 25.3103 30.4603C23.8148 31.9558 21.4079 31.9558 16.594 31.9558H10.2117C5.39787 31.9558 2.99094 31.9558 1.49547 30.4603C0 28.9649 0 26.558 0 21.7441V15.3618Z" fill="#2F241F"/>
<path d="M46.1266 23.3395H40.8612V8.48608H46.1701C47.6642 8.48608 48.9503 8.78344 50.0285 9.37816C51.1068 9.96804 51.936 10.8166 52.5162 11.9238C53.1013 13.0311 53.3938 14.3559 53.3938 15.8983C53.3938 17.4455 53.1013 18.7752 52.5162 19.8872C51.936 20.9993 51.1019 21.8527 50.014 22.4474C48.931 23.0421 47.6352 23.3395 46.1266 23.3395ZM44.0016 20.6488H45.9961C46.9244 20.6488 47.7053 20.4844 48.3387 20.1556C48.9769 19.822 49.4556 19.307 49.7747 18.6108C50.0987 17.9097 50.2606 17.0055 50.2606 15.8983C50.2606 14.8007 50.0987 13.9038 49.7747 13.2076C49.4556 12.5113 48.9793 11.9988 48.3459 11.67C47.7125 11.3412 46.9317 11.1768 46.0033 11.1768H44.0016V20.6488Z" fill="#2F241F"/>
<path d="M59.922 23.5571C58.776 23.5571 57.7897 23.325 56.9629 22.8608C56.1409 22.3918 55.5075 21.7294 55.0627 20.8736C54.6179 20.013 54.3954 18.9952 54.3954 17.8202C54.3954 16.6743 54.6179 15.6686 55.0627 14.8031C55.5075 13.9377 56.1337 13.2632 56.9411 12.7796C57.7534 12.2961 58.7059 12.0544 59.7987 12.0544C60.5336 12.0544 61.2178 12.1728 61.8512 12.4098C62.4894 12.6418 63.0454 12.9924 63.5193 13.4614C63.9979 13.9304 64.3702 14.5203 64.6362 15.231C64.9021 15.937 65.0351 16.7638 65.0351 17.7114V18.56H55.6284V16.6453H62.1268C62.1268 16.2005 62.0301 15.8064 61.8367 15.4631C61.6432 15.1198 61.3749 14.8515 61.0316 14.6581C60.6932 14.4598 60.2991 14.3607 59.8494 14.3607C59.3804 14.3607 58.9646 14.4695 58.602 14.6871C58.2442 14.8998 57.9637 15.1875 57.7607 15.5502C57.5576 15.908 57.4536 16.3069 57.4488 16.7468V18.5673C57.4488 19.1185 57.5503 19.5947 57.7534 19.996C57.9613 20.3973 58.2538 20.7068 58.631 20.9244C59.0081 21.1419 59.4554 21.2507 59.9727 21.2507C60.316 21.2507 60.6303 21.2024 60.9156 21.1057C61.2008 21.009 61.445 20.8639 61.6481 20.6705C61.8512 20.4771 62.0059 20.2402 62.1123 19.9598L64.9698 20.1483C64.8247 20.8349 64.5274 21.4345 64.0777 21.947C63.6329 22.4547 63.0575 22.8512 62.3516 23.1364C61.6505 23.4169 60.8406 23.5571 59.922 23.5571Z" fill="#2F241F"/>
<path d="M69.0339 20.1338L69.0411 16.4277H69.4908L73.0591 12.1994H76.6056L71.8116 17.7985H71.0791L69.0339 20.1338ZM66.2344 23.3395V8.48608H69.324V23.3395H66.2344ZM73.1969 23.3395L69.9187 18.4875L71.9785 16.3044L76.816 23.3395H73.1969Z" fill="#2F241F"/>
<path d="M81.8791 23.5571C80.7525 23.5571 79.7783 23.3177 78.9563 22.8391C78.1392 22.3556 77.5082 21.6835 77.0634 20.8228C76.6185 19.9573 76.3961 18.9541 76.3961 17.813C76.3961 16.6622 76.6185 15.6565 77.0634 14.7959C77.5082 13.9304 78.1392 13.2583 78.9563 12.7796C79.7783 12.2961 80.7525 12.0544 81.8791 12.0544C83.0057 12.0544 83.9775 12.2961 84.7947 12.7796C85.6166 13.2583 86.25 13.9304 86.6949 14.7959C87.1397 15.6565 87.3621 16.6622 87.3621 17.813C87.3621 18.9541 87.1397 19.9573 86.6949 20.8228C86.25 21.6835 85.6166 22.3556 84.7947 22.8391C83.9775 23.3177 83.0057 23.5571 81.8791 23.5571ZM81.8936 21.1637C82.4061 21.1637 82.834 21.0187 83.1773 20.7285C83.5206 20.4336 83.7793 20.0323 83.9534 19.5246C84.1323 19.0169 84.2217 18.4391 84.2217 17.7912C84.2217 17.1433 84.1323 16.5655 83.9534 16.0578C83.7793 15.5502 83.5206 15.1488 83.1773 14.8539C82.834 14.559 82.4061 14.4115 81.8936 14.4115C81.3763 14.4115 80.9411 14.559 80.5881 14.8539C80.24 15.1488 79.9765 15.5502 79.7976 16.0578C79.6235 16.5655 79.5365 17.1433 79.5365 17.7912C79.5365 18.4391 79.6235 19.0169 79.7976 19.5246C79.9765 20.0323 80.24 20.4336 80.5881 20.7285C80.9411 21.0187 81.3763 21.1637 81.8936 21.1637Z" fill="#2F241F"/>
<path d="M93.5875 23.5571C92.4609 23.5571 91.4866 23.3177 90.6647 22.8391C89.8475 22.3556 89.2166 21.6835 88.7717 20.8228C88.3269 19.9573 88.1045 18.9541 88.1045 17.813C88.1045 16.6622 88.3269 15.6565 88.7717 14.7959C89.2166 13.9304 89.8475 13.2583 90.6647 12.7796C91.4866 12.2961 92.4609 12.0544 93.5875 12.0544C94.7141 12.0544 95.6859 12.2961 96.5031 12.7796C97.325 13.2583 97.9584 13.9304 98.4033 14.7959C98.8481 15.6565 99.0705 16.6622 99.0705 17.813C99.0705 18.9541 98.8481 19.9573 98.4033 20.8228C97.9584 21.6835 97.325 22.3556 96.5031 22.8391C95.6859 23.3177 94.7141 23.5571 93.5875 23.5571ZM93.602 21.1637C94.1145 21.1637 94.5424 21.0187 94.8857 20.7285C95.229 20.4336 95.4877 20.0323 95.6618 19.5246C95.8406 19.0169 95.9301 18.4391 95.9301 17.7912C95.9301 17.1433 95.8406 16.5655 95.6618 16.0578C95.4877 15.5502 95.229 15.1488 94.8857 14.8539C94.5424 14.559 94.1145 14.4115 93.602 14.4115C93.0846 14.4115 92.6495 14.559 92.2965 14.8539C91.9484 15.1488 91.6849 15.5502 91.506 16.0578C91.3319 16.5655 91.2449 17.1433 91.2449 17.7912C91.2449 18.4391 91.3319 19.0169 91.506 19.5246C91.6849 20.0323 91.9484 20.4336 92.2965 20.7285C92.6495 21.0187 93.0846 21.1637 93.602 21.1637Z" fill="#2F241F"/>
<path d="M100.263 23.3395V12.1994H103.258V14.1431H103.374C103.577 13.4517 103.918 12.9295 104.397 12.5766C104.875 12.2188 105.426 12.0399 106.05 12.0399C106.205 12.0399 106.372 12.0495 106.551 12.0689C106.729 12.0882 106.887 12.1148 107.022 12.1487V14.8902C106.877 14.8467 106.676 14.808 106.42 14.7741C106.164 14.7403 105.929 14.7234 105.717 14.7234C105.262 14.7234 104.856 14.8225 104.498 15.0207C104.145 15.2141 103.865 15.4849 103.657 15.833C103.454 16.1811 103.352 16.5825 103.352 17.037V23.3395H100.263Z" fill="#2F241F"/>
</svg>
